<svg width="27" height="12" viewBox="0 0 27 12" fill="none" xmlns="http://www.w3.org/2000/svg">
<path opacity="0.35" d="M1.21191 2.99992C1.21191 1.8033 2.18196 0.833252 3.37858 0.833252H21.3359C22.5325 0.833252 23.5026 1.8033 23.5026 2.99992V8.99992C23.5026 10.1965 22.5325 11.1666 21.3359 11.1666H3.37858C2.18196 11.1666 1.21191 10.1965 1.21191 8.99992V2.99992Z" stroke="black"/>
<path opacity="0.4" d="M25.0613 4V8C25.9132 7.66122 26.4672 6.87313 26.4672 6C26.4672 5.12687 25.9132 4.33878 25.0613 4Z" fill="black"/>
<path d="M2.82935 3.66659C2.82935 2.93021 3.4263 2.33325 4.16268 2.33325H20.552C21.2884 2.33325 21.8853 2.93021 21.8853 3.66659V8.33325C21.8853 9.06963 21.2884 9.66659 20.552 9.66659H4.16268C3.4263 9.66659 2.82935 9.06963 2.82935 8.33325V3.66659Z" fill="black"/>
</svg>
