<svg width="28" height="12" viewBox="0 0 28 12" fill="none" xmlns="http://www.w3.org/2000/svg">
<path opacity="0.35" d="M1.37988 2.99992C1.37988 1.8033 2.34993 0.833252 3.54655 0.833252H21.9732C23.1698 0.833252 24.1399 1.8033 24.1399 2.99992V8.99992C24.1399 10.1965 23.1698 11.1666 21.9732 11.1666H3.54655C2.34993 11.1666 1.37988 10.1965 1.37988 8.99992V2.99992Z" stroke="black"/>
<path opacity="0.4" d="M25.72 4V8C26.5891 7.66122 27.1542 6.87313 27.1542 6C27.1542 5.12687 26.5891 4.33878 25.72 4Z" fill="black"/>
<path d="M3.03979 3.66659C3.03979 2.93021 3.63675 2.33325 4.37313 2.33325H21.1465C21.8828 2.33325 22.4798 2.93021 22.4798 3.66659V8.33325C22.4798 9.06963 21.8828 9.66659 21.1465 9.66659H4.37313C3.63675 9.66659 3.03979 9.06963 3.03979 8.33325V3.66659Z" fill="black"/>
</svg>
