<svg width="25" height="12" viewBox="0 0 25 12" fill="none" xmlns="http://www.w3.org/2000/svg">
<path opacity="0.35" d="M0.5 3C0.5 1.80338 1.47005 0.833336 2.66667 0.833336H19.3333C20.53 0.833336 21.5 1.80339 21.5 3V9C21.5 10.1966 20.53 11.1667 19.3333 11.1667H2.66667C1.47005 11.1667 0.5 10.1966 0.5 9V3Z" stroke="black"/>
<path opacity="0.4" d="M23 4V8C23.8047 7.66122 24.328 6.87313 24.328 6C24.328 5.12687 23.8047 4.33878 23 4Z" fill="black"/>
<path d="M2 3.66667C2 2.93029 2.59695 2.33334 3.33333 2.33334H18.6667C19.403 2.33334 20 2.93029 20 3.66667V8.33333C20 9.06971 19.403 9.66667 18.6667 9.66667H3.33333C2.59695 9.66667 2 9.06972 2 8.33334V3.66667Z" fill="black"/>
</svg>
