<svg width="114" height="88" viewBox="0 0 114 88" fill="none" xmlns="http://www.w3.org/2000/svg">
<g filter="url(#filter0_d_40_4291)">
<rect x="25" y="24" width="64" height="38" rx="8" fill="white"/>
</g>
<g clip-path="url(#clip0_40_4291)">
<path d="M46.8176 55.8757V54.221C46.8176 53.5867 46.4334 53.173 45.7748 53.173C45.4455 53.173 45.0888 53.2833 44.8418 53.6418C44.6497 53.3385 44.3753 53.173 43.9637 53.173C43.6893 53.173 43.4149 53.2557 43.1954 53.5591V53.2282H42.6191V55.8757H43.1954V54.414C43.1954 53.9452 43.4424 53.7246 43.8265 53.7246C44.2107 53.7246 44.4028 53.9728 44.4028 54.414V55.8757H44.979V54.414C44.979 53.9452 45.2534 53.7246 45.6102 53.7246C45.9943 53.7246 46.1864 53.9728 46.1864 54.414V55.8757H46.8176ZM55.3516 53.2282H54.4186V52.4284H53.8423V53.2282H53.321V53.7521H53.8423V54.9656C53.8423 55.5723 54.0893 55.9308 54.7479 55.9308C54.9948 55.9308 55.2693 55.8481 55.4613 55.7378L55.2967 55.2414C55.1321 55.3517 54.94 55.3793 54.8028 55.3793C54.5284 55.3793 54.4186 55.2138 54.4186 54.938V53.7521H55.3516V53.2282ZM60.236 53.173C59.9067 53.173 59.6872 53.3385 59.55 53.5591V53.2282H58.9737V55.8757H59.55V54.3865C59.55 53.9452 59.7421 53.697 60.0988 53.697C60.2086 53.697 60.3458 53.7246 60.4555 53.7521L60.6202 53.2006C60.5104 53.173 60.3458 53.173 60.236 53.173ZM52.8545 53.4488C52.5801 53.2557 52.1959 53.173 51.7843 53.173C51.1257 53.173 50.6867 53.5039 50.6867 54.0279C50.6867 54.4692 51.016 54.7174 51.5922 54.8001L51.8666 54.8277C52.1685 54.8829 52.3331 54.9656 52.3331 55.1035C52.3331 55.2965 52.1136 55.4344 51.7294 55.4344C51.3452 55.4344 51.0434 55.2965 50.8513 55.1587L50.5769 55.5999C50.8788 55.8205 51.2904 55.9308 51.702 55.9308C52.4703 55.9308 52.9094 55.5723 52.9094 55.0759C52.9094 54.6071 52.5526 54.3589 52.0038 54.2761L51.7294 54.2486C51.4825 54.221 51.2904 54.1658 51.2904 54.0004C51.2904 53.8073 51.4825 53.697 51.7843 53.697C52.1136 53.697 52.4429 53.8349 52.6075 53.9176L52.8545 53.4488ZM68.1663 53.173C67.837 53.173 67.6175 53.3385 67.4803 53.5591V53.2282H66.9041V55.8757H67.4803V54.3865C67.4803 53.9452 67.6724 53.697 68.0291 53.697C68.1389 53.697 68.2761 53.7246 68.3859 53.7521L68.5505 53.2006C68.4407 53.173 68.2761 53.173 68.1663 53.173ZM60.8123 54.5519C60.8123 55.3517 61.3611 55.9308 62.2117 55.9308C62.5959 55.9308 62.8703 55.8481 63.1447 55.6275L62.8703 55.1587C62.6508 55.3241 62.4312 55.4069 62.1843 55.4069C61.7178 55.4069 61.3885 55.0759 61.3885 54.5519C61.3885 54.0555 61.7178 53.7246 62.1843 53.697C62.4312 53.697 62.6508 53.7797 62.8703 53.9452L63.1447 53.4764C62.8703 53.2557 62.5959 53.173 62.2117 53.173C61.3611 53.173 60.8123 53.7521 60.8123 54.5519ZM66.1357 54.5519V53.2282H65.5595V53.5591C65.3674 53.3109 65.093 53.173 64.7363 53.173C63.9954 53.173 63.4191 53.7521 63.4191 54.5519C63.4191 55.3517 63.9954 55.9308 64.7363 55.9308C65.1204 55.9308 65.3948 55.793 65.5595 55.5447V55.8757H66.1357V54.5519ZM64.0228 54.5519C64.0228 54.0831 64.3246 53.697 64.8186 53.697C65.2851 53.697 65.6144 54.0555 65.6144 54.5519C65.6144 55.0208 65.2851 55.4069 64.8186 55.4069C64.3246 55.3793 64.0228 55.0208 64.0228 54.5519ZM57.1352 53.173C56.3669 53.173 55.8181 53.7246 55.8181 54.5519C55.8181 55.3793 56.3669 55.9308 57.1627 55.9308C57.5468 55.9308 57.931 55.8205 58.2328 55.5723L57.9584 55.1587C57.7389 55.3241 57.4645 55.4344 57.1901 55.4344C56.8334 55.4344 56.4766 55.269 56.3943 54.8001H58.3426V54.5795C58.37 53.7246 57.8761 53.173 57.1352 53.173ZM57.1352 53.6694C57.4919 53.6694 57.7389 53.89 57.7938 54.3037H56.4218C56.4766 53.9452 56.7236 53.6694 57.1352 53.6694ZM71.4318 54.5519V52.1802H70.8555V53.5591C70.6634 53.3109 70.389 53.173 70.0323 53.173C69.2914 53.173 68.7151 53.7521 68.7151 54.5519C68.7151 55.3517 69.2914 55.9308 70.0323 55.9308C70.4165 55.9308 70.6909 55.793 70.8555 55.5447V55.8757H71.4318V54.5519ZM69.3188 54.5519C69.3188 54.0831 69.6207 53.697 70.1146 53.697C70.5811 53.697 70.9104 54.0555 70.9104 54.5519C70.9104 55.0208 70.5811 55.4069 70.1146 55.4069C69.6207 55.3793 69.3188 55.0208 69.3188 54.5519ZM50.0555 54.5519V53.2282H49.4793V53.5591C49.2872 53.3109 49.0128 53.173 48.6561 53.173C47.9152 53.173 47.3389 53.7521 47.3389 54.5519C47.3389 55.3517 47.9152 55.9308 48.6561 55.9308C49.0402 55.9308 49.3146 55.793 49.4793 55.5447V55.8757H50.0555V54.5519ZM47.9152 54.5519C47.9152 54.0831 48.217 53.697 48.711 53.697C49.1774 53.697 49.5067 54.0555 49.5067 54.5519C49.5067 55.0208 49.1774 55.4069 48.711 55.4069C48.217 55.3793 47.9152 55.0208 47.9152 54.5519Z" fill="black"/>
<path d="M61.3059 33.1235H52.6621V48.733H61.3059V33.1235Z" fill="#FF5F00"/>
<path d="M53.2111 40.9283C53.2111 37.7567 54.6929 34.9437 56.9704 33.1235C55.2965 31.7998 53.1836 31 50.8786 31C45.4179 31 41 35.4401 41 40.9283C41 46.4164 45.4179 50.8565 50.8786 50.8565C53.1836 50.8565 55.2965 50.0567 56.9704 48.733C54.6929 46.9404 53.2111 44.0998 53.2111 40.9283Z" fill="#EB001B"/>
<path d="M72.9682 40.9283C72.9682 46.4164 68.5503 50.8565 63.0896 50.8565C60.7846 50.8565 58.6717 50.0567 56.9978 48.733C59.3028 46.9128 60.7572 44.0998 60.7572 40.9283C60.7572 37.7567 59.2754 34.9437 56.9978 33.1235C58.6717 31.7998 60.7846 31 63.0896 31C68.5503 31 72.9682 35.4677 72.9682 40.9283Z" fill="#F79E1B"/>
</g>
<defs>
<filter id="filter0_d_40_4291" x="0" y="0" width="114" height="88" filterUnits="userSpaceOnUse" color-interpolation-filters="sRGB">
<feFlood flood-opacity="0" result="BackgroundImageFix"/>
<feColorMatrix in="SourceAlpha" type="matrix" values="0 0 0 0 0 0 0 0 0 0 0 0 0 0 0 0 0 0 127 0" result="hardAlpha"/>
<feOffset dy="1"/>
<feGaussianBlur stdDeviation="12.5"/>
<feColorMatrix type="matrix" values="0 0 0 0 0 0 0 0 0 0 0 0 0 0 0 0 0 0 0.08 0"/>
<feBlend mode="normal" in2="BackgroundImageFix" result="effect1_dropShadow_40_4291"/>
<feBlend mode="normal" in="SourceGraphic" in2="effect1_dropShadow_40_4291" result="shape"/>
</filter>
<clipPath id="clip0_40_4291">
<rect width="32" height="25" fill="white" transform="translate(41 31)"/>
</clipPath>
</defs>
</svg>
