<svg width="71" height="16" viewBox="0 0 71 16" fill="none" xmlns="http://www.w3.org/2000/svg">
<g clip-path="url(#clip0_40_4303)">
<path d="M70.9998 0V16H0V0H70.9998Z" fill="#FFCC00"/>
<path d="M12.4859 2.87329L10.2175 6.02032H22.5805C23.2054 6.02032 23.1972 6.26278 22.8918 6.68528C22.5816 7.11431 22.0625 7.8602 21.7465 8.29572C21.5862 8.5169 21.2963 8.91965 22.2569 8.91965H27.3127C27.3127 8.91965 28.1276 7.78732 28.8106 6.84069C29.74 5.55301 28.8911 2.87329 25.569 2.87329H12.4859Z" fill="#BF190E"/>
<path d="M9.29956 13.1259L13.8558 6.8042C13.8558 6.8042 18.9067 6.80425 19.5099 6.80425C20.1347 6.80425 20.1266 7.04672 19.8212 7.46926C19.511 7.89831 18.9832 8.63625 18.6673 9.07199C18.5069 9.29303 18.2171 9.69652 19.1776 9.69652H26.7521C26.1223 10.5777 24.079 13.1259 20.4099 13.1259H9.29956Z" fill="#BF190E"/>
<path d="M35.3931 9.6958L32.9224 13.1259H26.4048C26.4048 13.1259 28.8742 9.69654 28.8764 9.69654L35.3931 9.6958Z" fill="#BF190E"/>
<path d="M45.3782 8.91969H29.4365L33.7959 2.87329H40.3115L37.8129 6.34043H40.7214L43.221 2.87329H49.736L45.3782 8.91969Z" fill="#BF190E"/>
<path d="M44.8182 9.69653L42.3463 13.1259H35.8311C35.8311 13.1259 38.3005 9.69653 38.3028 9.69653H44.8182Z" fill="#BF190E"/>
<path d="M0 11.0488H9.60134L9.07673 11.7775H0V11.0488Z" fill="#BF190E"/>
<path d="M0 9.69629H10.5768L10.0513 10.4239H0V9.69629Z" fill="#BF190E"/>
<path d="M0 12.4019H8.62638L8.10439 13.1258H0V12.4019Z" fill="#BF190E"/>
<path d="M70.9999 11.7775H61.4353L61.9602 11.0488H70.9999V11.7775Z" fill="#BF190E"/>
<path d="M70.9999 13.1258L60.4629 13.1267L60.9849 12.4019H70.9999V13.1258Z" fill="#BF190E"/>
<path d="M62.9345 9.69629H71.0001V10.4243L62.4104 10.4248L62.9345 9.69629Z" fill="#BF190E"/>
<path d="M58.7595 2.87329L54.4007 8.91965H47.4968C47.4968 8.91965 51.8564 2.87329 51.8586 2.87329H58.7595Z" fill="#BF190E"/>
<path d="M46.9378 9.69653C46.9378 9.69653 46.4616 10.3612 46.2302 10.6806C45.4118 11.81 46.1353 13.1259 48.8061 13.1259H59.2699L61.7416 9.69653H46.9378Z" fill="#BF190E"/>
</g>
<defs>
<clipPath id="clip0_40_4303">
<rect width="71" height="16" fill="white"/>
</clipPath>
</defs>
</svg>
