<svg width="19" height="12" viewBox="0 0 19 12" fill="none" xmlns="http://www.w3.org/2000/svg">
<path fill-rule="evenodd" clip-rule="evenodd" d="M17.8337 0.666748H16.775C16.1903 0.666748 15.7163 1.11446 15.7163 1.66675V10.3334C15.7163 10.8857 16.1903 11.3334 16.775 11.3334H17.8337C18.4184 11.3334 18.8923 10.8857 18.8923 10.3334V1.66675C18.8923 1.11446 18.4184 0.666748 17.8337 0.666748ZM11.8346 3.00008H12.8932C13.4779 3.00008 13.9519 3.4478 13.9519 4.00008V10.3334C13.9519 10.8857 13.4779 11.3334 12.8932 11.3334H11.8346C11.2499 11.3334 10.7759 10.8857 10.7759 10.3334V4.00008C10.7759 3.4478 11.2499 3.00008 11.8346 3.00008ZM7.95278 5.33341H6.89411C6.30943 5.33341 5.83545 5.78113 5.83545 6.33341V10.3334C5.83545 10.8857 6.30943 11.3334 6.89411 11.3334H7.95278C8.53746 11.3334 9.01144 10.8857 9.01144 10.3334V6.33341C9.01144 5.78113 8.53746 5.33341 7.95278 5.33341ZM3.01235 7.33341H1.95368C1.369 7.33341 0.89502 7.78113 0.89502 8.33341V10.3334C0.89502 10.8857 1.369 11.3334 1.95368 11.3334H3.01235C3.59703 11.3334 4.07101 10.8857 4.07101 10.3334V8.33341C4.07101 7.78113 3.59703 7.33341 3.01235 7.33341Z" fill="black"/>
</svg>
