<svg width="19" height="12" viewBox="0 0 19 12" fill="none" xmlns="http://www.w3.org/2000/svg">
<path fill-rule="evenodd" clip-rule="evenodd" d="M17.4399 0.666748H16.3599C15.7634 0.666748 15.2799 1.11446 15.2799 1.66675V10.3334C15.2799 10.8857 15.7634 11.3334 16.3599 11.3334H17.4399C18.0364 11.3334 18.5199 10.8857 18.5199 10.3334V1.66675C18.5199 1.11446 18.0364 0.666748 17.4399 0.666748ZM11.3199 3.00008H12.3999C12.9964 3.00008 13.4799 3.4478 13.4799 4.00008V10.3334C13.4799 10.8857 12.9964 11.3334 12.3999 11.3334H11.3199C10.7234 11.3334 10.2399 10.8857 10.2399 10.3334V4.00008C10.2399 3.4478 10.7234 3.00008 11.3199 3.00008ZM7.3599 5.33341H6.2799C5.68343 5.33341 5.19989 5.78113 5.19989 6.33341V10.3334C5.19989 10.8857 5.68343 11.3334 6.2799 11.3334H7.3599C7.95638 11.3334 8.43991 10.8857 8.43991 10.3334V6.33341C8.43991 5.78113 7.95638 5.33341 7.3599 5.33341ZM2.31991 7.33341H1.23991C0.643443 7.33341 0.159912 7.78113 0.159912 8.33341V10.3334C0.159912 10.8857 0.643443 11.3334 1.23991 11.3334H2.31991C2.91637 11.3334 3.3999 10.8857 3.3999 10.3334V8.33341C3.3999 7.78113 2.91637 7.33341 2.31991 7.33341Z" fill="black"/>
</svg>
