<svg width="82" height="11" viewBox="0 0 82 11" fill="none" xmlns="http://www.w3.org/2000/svg">
<g clip-path="url(#clip0_40_4336)">
<path d="M14.4899 10.2501L16.6756 0H2.18576L0 10.2501H14.4899Z" fill="white"/>
<path fill-rule="evenodd" clip-rule="evenodd" d="M10.7745 2.14986C12.4574 2.54083 12.501 2.95336 12.501 2.95336C13.5937 2.95336 13.878 2.95336 14.0746 3.14879C14.7084 3.73519 13.6375 5.16845 13.6375 5.16845C13.5065 5.25531 1.44238 9.94596 1.44238 9.94596H14.1402L16.1727 0.412598H2.53512C2.53512 0.412598 10.5778 2.10637 10.7745 2.14986Z" fill="#333366"/>
<path fill-rule="evenodd" clip-rule="evenodd" d="M12.0203 3.53962C11.7368 3.63566 11.4437 3.70122 11.1461 3.73517C10.9712 3.75683 10.8838 3.75683 10.8838 3.80022C10.8838 3.86553 11.1241 3.84371 11.2117 3.84371C11.6051 3.84371 13.1568 3.73517 13.5283 3.80022C13.8124 3.84371 13.4845 4.40829 13.3971 4.75576C13.3753 4.88601 13.4627 4.82094 13.5065 4.75576C13.6959 4.45885 13.843 4.13727 13.9435 3.80022C13.9873 3.36598 13.6812 3.30082 13.1568 3.30082H12.3481C12.3251 3.29755 12.3017 3.30224 12.2818 3.31411C12.2619 3.32599 12.2467 3.34431 12.2388 3.36601C12.1733 3.43105 12.0641 3.49613 12.0203 3.53963L12.0203 3.53962Z" fill="#333366"/>
<path fill-rule="evenodd" clip-rule="evenodd" d="M6.99373 6.75375L0.502686 9.94596L2.07631 2.62769H8.6327C8.74194 2.62769 12.1513 2.62769 12.2171 3.30084H6.31616L7.23392 6.0805C8.28314 5.58097 10.8619 4.53867 12.4136 4.47336C13.0693 4.45168 13.3315 4.56022 13.2004 4.64724C13.113 4.69059 12.4792 4.77746 11.9765 4.90785C11.3551 5.04698 10.7422 5.22095 10.1406 5.42891C9.06747 5.81153 8.01685 6.25384 6.99374 6.75375H6.99373Z" fill="#333366"/>
<path fill-rule="evenodd" clip-rule="evenodd" d="M20.5874 10.163C18.0523 10.163 16.5442 9.16397 17.047 6.92733C17.8774 3.06188 18.4239 0.477783 18.4239 0.477783H20.5438C20.5438 0.477783 19.2544 6.42781 19.2979 6.29759C18.9702 7.77422 19.2979 8.66459 20.9153 8.66459C22.467 8.66459 23.2538 7.77421 23.5815 6.29759C23.7782 5.45059 24.8273 0.477783 24.8273 0.477783H26.9473C25.5267 6.92735 26.9473 0.477783 25.5485 6.92735C25.0239 9.14243 23.1008 10.163 20.5874 10.163V10.163Z" fill="#333366"/>
<path fill-rule="evenodd" clip-rule="evenodd" d="M38.2684 6.36277C37.8074 6.35811 37.3474 6.32184 36.8915 6.25423L37.1538 4.88602C37.4161 4.90783 37.7656 4.95131 38.0935 4.95131C38.5724 4.98922 39.0485 4.85084 39.4314 4.56251C39.8142 4.27419 40.077 3.85605 40.1697 3.38769C40.3882 2.34525 39.8638 1.97611 39.0988 1.97611H37.3723L35.6676 9.98932H33.5476L35.5802 0.477783H40.1697C42.2459 0.477783 42.4864 2.28019 42.2241 3.47455C41.8306 5.25529 40.1477 6.36277 38.2683 6.36277H38.2684Z" fill="#333366"/>
<path fill-rule="evenodd" clip-rule="evenodd" d="M33.7879 1.99791H31.5367C30.3785 1.99791 29.8758 2.23684 29.7665 2.69286C29.4386 4.21301 33.5692 5.40736 33.1758 7.75268C32.9572 9.05557 31.8208 9.98945 29.1763 9.98945H25.9419L26.2696 8.46932H28.8485C29.6572 8.46932 30.6407 8.51282 30.8155 7.70918C31.1214 6.34123 27.0564 4.99469 27.3623 2.71456C27.559 1.34646 28.783 0.477783 31.2526 0.477783L34.0937 0.477919L33.7879 1.99791H33.7879Z" fill="#333366"/>
<path fill-rule="evenodd" clip-rule="evenodd" d="M49.5453 1.99791H47.2944C46.1359 1.99791 45.6333 2.23684 45.5239 2.69286C45.1962 4.21301 49.3268 5.40736 48.9333 7.75268C48.7148 9.05557 47.5783 9.98945 44.9339 9.98945H41.6992L42.0272 8.46932H44.6279C45.4366 8.46932 46.4201 8.51282 46.5948 7.70918C46.9009 6.34123 42.8357 4.99469 43.1418 2.71456C43.3384 1.34646 44.5624 0.477783 47.0321 0.477783L49.873 0.477919L49.5453 1.99791Z" fill="#333366"/>
<path fill-rule="evenodd" clip-rule="evenodd" d="M50.2665 8.29565C50.0979 8.29568 49.9331 8.34537 49.793 8.43844C49.6528 8.53152 49.5436 8.66379 49.4791 8.81854C49.4147 8.97329 49.3978 9.14356 49.4307 9.30783C49.4636 9.4721 49.5448 9.62299 49.664 9.74141C49.7832 9.85984 49.9351 9.94048 50.1004 9.97314C50.2657 10.0058 50.4371 9.98902 50.5928 9.92492C50.7485 9.86081 50.8816 9.75226 50.9753 9.613C51.0689 9.47373 51.1189 9.31 51.1189 9.14251C51.1186 8.91796 51.0287 8.7027 50.8689 8.54394C50.7091 8.38518 50.4924 8.29589 50.2665 8.29565Z" fill="#333366"/>
<path fill-rule="evenodd" clip-rule="evenodd" d="M82.0001 0.43457L79.9236 9.96766H78.1534L79.7273 2.88846L75.5093 9.96766H73.6953L72.6899 3.34429L71.2257 9.96766H69.4773L71.5095 0.43457H74.0447L75.1157 7.44859L79.2244 0.43457H82.0001Z" fill="#333366"/>
<path fill-rule="evenodd" clip-rule="evenodd" d="M55.8613 10.1632C54.7156 10.2131 53.5834 9.90142 52.6269 9.27272C52.1886 8.94201 51.8381 8.51008 51.6058 8.01437C51.3735 7.51866 51.2664 6.97412 51.2937 6.42797C51.2945 6.00365 51.3458 5.58091 51.4466 5.16859C52.146 1.75913 55.009 0.239014 57.9157 0.239014C58.6348 0.245676 59.3518 0.318358 60.0575 0.456134L60.2106 0.477943L59.861 2.01975L59.7298 1.99793C59.2489 1.95458 58.921 1.91121 58.484 1.91121C58.0897 1.91185 57.6957 1.93357 57.3037 1.97627C56.618 2.03116 55.9605 2.27149 55.4024 2.6712C54.815 3.03733 54.3279 3.54229 53.9847 4.14099C53.6415 4.73969 53.4528 5.41351 53.4354 6.10232C53.4165 6.46409 53.4958 6.82427 53.665 7.14517C53.8342 7.46607 54.087 7.7359 54.3971 7.92643C55.1381 8.35662 55.9873 8.56759 56.8448 8.53451C57.3271 8.53871 57.809 8.50972 58.2873 8.44776L58.5059 8.42597L58.178 9.9244L58.0688 9.94621C57.341 10.0839 56.6022 10.1565 55.8613 10.1632H55.8613Z" fill="#333366"/>
<path fill-rule="evenodd" clip-rule="evenodd" d="M65.5213 0.412598C62.5927 0.412598 60.1668 1.93274 59.4675 5.25531C58.8992 7.92629 60.5385 10.1197 63.4451 10.1197C66.3956 10.1197 68.7558 8.66474 69.4989 5.25531C70.0672 2.47565 68.4062 0.412598 65.5213 0.412598ZM67.532 5.27699C67.073 7.66569 65.6306 8.68645 63.8167 8.68645C62.0245 8.68645 61.041 7.14451 61.3689 5.27701C61.8059 2.93157 63.2921 1.88928 65.0841 1.88928C66.8763 1.86759 67.9035 3.32254 67.532 5.27701V5.27699Z" fill="#333366"/>
</g>
<defs>
<clipPath id="clip0_40_4336">
<rect width="82" height="10.25" fill="white"/>
</clipPath>
</defs>
</svg>
