<svg width="18" height="12" viewBox="0 0 18 12" fill="none" xmlns="http://www.w3.org/2000/svg">
<path fill-rule="evenodd" clip-rule="evenodd" d="M9.19676 2.60789C11.5899 2.60799 13.8916 3.45943 15.626 4.98623C15.7566 5.1041 15.9654 5.10261 16.094 4.98289L17.3425 3.81623C17.4076 3.7555 17.4439 3.67325 17.4434 3.58767C17.4428 3.50209 17.4055 3.42024 17.3396 3.36023C12.7873 -0.67932 5.6055 -0.67932 1.05319 3.36023C0.98725 3.42019 0.949834 3.50202 0.949226 3.5876C0.948618 3.67318 0.984868 3.75546 1.04995 3.81623L2.29879 4.98289C2.42734 5.10279 2.63627 5.10428 2.76679 4.98623C4.50144 3.45933 6.80336 2.60789 9.19676 2.60789ZM9.19675 6.40356C10.5116 6.40348 11.7796 6.85602 12.7543 7.67323C12.8861 7.78921 13.0938 7.78669 13.2223 7.66756L14.4693 6.50089C14.535 6.4397 14.5714 6.35668 14.5705 6.27042C14.5695 6.18415 14.5313 6.10184 14.4643 6.04189C11.4962 3.48551 6.89981 3.48551 3.93175 6.04189C3.86471 6.10184 3.82646 6.18419 3.82558 6.27049C3.8247 6.35678 3.86126 6.43979 3.92707 6.50089L5.17375 7.66756C5.30226 7.78669 5.50992 7.78921 5.64175 7.67323C6.61578 6.85656 7.88273 6.40406 9.19675 6.40356ZM11.6948 8.95738C11.6967 9.04389 11.66 9.12729 11.5933 9.18789L9.43615 11.2036C9.37292 11.2628 9.2867 11.2961 9.19675 11.2961C9.10679 11.2961 9.02058 11.2628 8.95735 11.2036L6.79987 9.18789C6.73322 9.12724 6.69656 9.04381 6.69853 8.95731C6.70051 8.8708 6.74095 8.78888 6.81031 8.73089C8.18793 7.65201 10.2056 7.65201 11.5832 8.73089C11.6525 8.78893 11.6929 8.87087 11.6948 8.95738Z" fill="black"/>
</svg>
