<svg width="17" height="12" viewBox="0 0 17 12" fill="none" xmlns="http://www.w3.org/2000/svg">
<path fill-rule="evenodd" clip-rule="evenodd" d="M8.29898 2.60789C10.6449 2.60799 12.9011 3.45943 14.6012 4.98623C14.7293 5.1041 14.9339 5.10261 15.06 4.98289L16.2838 3.81623C16.3476 3.7555 16.3832 3.67325 16.3827 3.58767C16.3822 3.50209 16.3456 3.42024 16.281 3.36023C11.8186 -0.67932 4.77866 -0.67932 0.316276 3.36023C0.251635 3.42019 0.214959 3.50202 0.214363 3.5876C0.213767 3.67318 0.2493 3.75546 0.3131 3.81623L1.53727 4.98289C1.66328 5.10279 1.86808 5.10428 1.99603 4.98623C3.69641 3.45933 5.95286 2.60789 8.29898 2.60789ZM8.299 6.40356C9.58791 6.40348 10.8308 6.85602 11.7862 7.67323C11.9155 7.78921 12.119 7.78669 12.245 7.66756L13.4674 6.50089C13.5318 6.4397 13.5675 6.35668 13.5666 6.27042C13.5656 6.18415 13.5281 6.10184 13.4625 6.04189C10.553 3.48551 6.04742 3.48551 3.138 6.04189C3.07228 6.10184 3.03478 6.18419 3.03392 6.27049C3.03306 6.35678 3.0689 6.43979 3.13341 6.50089L4.35546 7.66756C4.48143 7.78669 4.685 7.78921 4.81422 7.67323C5.769 6.85656 7.01093 6.40406 8.299 6.40356ZM10.7477 8.95738C10.7495 9.04389 10.7135 9.12729 10.6482 9.18789L8.53365 11.2036C8.47167 11.2628 8.38716 11.2961 8.29898 11.2961C8.2108 11.2961 8.1263 11.2628 8.06431 11.2036L5.94945 9.18789C5.88411 9.12724 5.84817 9.04381 5.85011 8.95731C5.85205 8.8708 5.89169 8.78888 5.95968 8.73089C7.31009 7.65201 9.28788 7.65201 10.6383 8.73089C10.7062 8.78893 10.7458 8.87087 10.7477 8.95738Z" fill="black"/>
</svg>
